<?xml version="1.0" encoding="utf-8"?>
<!-- Generator: Adobe Illustrator 28.3.0, SVG Export Plug-In . SVG Version: 6.00 Build 0)  -->
<svg version="1.1" id="Layer_1" xmlns="http://www.w3.org/2000/svg" xmlns:xlink="http://www.w3.org/1999/xlink" x="0px" y="0px"
	 viewBox="0 0 40 40" style="enable-background:new 0 0 40 40;" xml:space="preserve">
<style type="text/css">
	.st0{fill:#0072E1;}
</style>
<g>
	<path class="st0" d="M31.4,36.3c-2.6,1.5-6.2,2.7-11.8,2.7c-10.1,0-18.8-6.6-18.8-18.4C0.9,9.5,9.2,1.1,21.3,1.1
		c9.9,0,17.8,6,17.8,15.5c0,8.2-4.9,13-11.4,13c-2.7,0-4.5-1.1-4.9-2.9c-1.5,1.9-3.2,2.9-6.1,2.9c-3.7,0-6.4-2.9-6.4-7.7
		c0-6.8,4.2-11.8,9.2-11.8c2.9,0,4,1.3,4.5,2.6l0.5-2.1H30l-2.3,11.3c-0.4,2.5,0.1,3.4,1.5,3.4c3.1,0,4.8-3.5,4.8-8.5
		c0-7-5.1-11.3-13-11.3c-8.9,0-14.8,6-14.8,15.5c0,8.9,5.9,13.6,14,13.6c5,0,8-0.9,10.2-2L31.4,36.3z M16.2,21.8
		c0,2.2,0.9,3.5,2.4,3.5c2,0,3.5-2,4.1-5.6c0.5-2.8,0.6-5.5-2.1-5.5C17.6,14.2,16.2,18.2,16.2,21.8z"/>
</g>
</svg>
